<svg width="18" height="21" viewBox="0 0 18 21" fill="none" xmlns="http://www.w3.org/2000/svg">
<path d="M17.0669 14.3604C16.6874 13.2083 16.4935 12.0032 16.4924 10.7901V7.7929C16.52 5.89372 15.8422 4.05179 14.5902 2.62347C13.3425 1.19289 11.6107 0.273058 9.72681 0.0402492C8.68573 -0.0677598 7.62664 0.0402492 6.62155 0.380778C5.61647 0.703305 4.70139 1.24185 3.93033 1.96041C3.15542 2.66044 2.53778 3.51685 2.11818 4.47312C1.69649 5.42902 1.47639 6.4616 1.47162 7.50637V10.8067C1.46942 12.0147 1.2755 13.2147 0.897075 14.3619L0 17.0157L0.71856 18.0028H5.9765C5.9765 18.7918 6.29903 19.5629 6.85557 20.1209C7.41062 20.676 8.18318 21 8.97375 21C9.76282 21 10.5339 20.6775 11.0904 20.1209C11.647 19.5644 11.971 18.7918 11.971 18.0028H17.2289L17.946 17.0157L17.0669 14.3604ZM10.0313 19.0813C9.89332 19.2221 9.72883 19.3342 9.54733 19.4112C9.36582 19.4882 9.17089 19.5285 8.97375 19.5299C8.77625 19.5285 8.58097 19.488 8.39919 19.4108C8.21741 19.3336 8.05273 19.2211 7.91466 19.0798C7.77361 18.9419 7.66123 18.7775 7.58399 18.596C7.50676 18.4145 7.46619 18.2195 7.46462 18.0223H10.4634C10.4696 18.2191 10.4345 18.415 10.3604 18.5974C10.2862 18.7799 10.1746 18.9447 10.0328 19.0813H10.0313ZM1.75815 16.5161L2.31469 14.845C2.7487 13.5431 2.97302 12.1805 2.97925 10.8081V7.50637C2.97925 6.6618 3.15926 5.83673 3.49979 5.08217C3.84032 4.31111 4.32486 3.62855 4.95341 3.072C5.58197 2.49895 6.31853 2.06692 7.10759 1.8164C7.91466 1.54638 8.75773 1.45637 9.5828 1.54638C11.0949 1.74521 12.4814 2.4926 13.4786 3.64655C14.4762 4.80193 15.0125 6.28471 14.9848 7.8109V10.8262C14.9848 12.1898 15.2008 13.5534 15.6493 14.863L16.2059 16.5326H1.75965V16.5146L1.75815 16.5161Z" fill="#6FA4E9"/>
</svg>
