<svg width="1200" height="376" viewBox="0 0 1200 376" fill="none" xmlns="http://www.w3.org/2000/svg">
<rect x="176.945" y="12" width="10.1111" height="110.07" fill="#FF1744"/>
<rect width="10.1753" height="109.384" transform="matrix(0.702646 0.71154 -0.702646 0.71154 291.211 74.9707)" fill="#FF6D00"/>
<rect width="10.1753" height="109.384" transform="matrix(0.702646 0.71154 -0.702646 0.71154 136.078 231.012)" fill="#6DBCE1"/>
<rect x="363.996" y="191.185" width="10.2391" height="108.694" transform="rotate(90 363.996 191.185)" fill="#FFD600"/>
<rect x="108.695" y="191.185" width="10.2391" height="108.694" transform="rotate(90 108.695 191.185)" fill="#2962FF"/>
<rect width="10.1753" height="109.384" transform="matrix(-0.702646 0.71154 -0.702646 -0.71154 298.426 308.844)" fill="#AEEA00"/>
<rect width="10.1753" height="109.384" transform="matrix(-0.702646 0.71154 -0.702646 -0.71154 143.391 152.801)" fill="#AA00FF"/>
<rect x="186.75" y="375.797" width="10.1111" height="110.07" transform="rotate(-180 186.75 375.797)" fill="#00C853"/>
<path d="M496.18 196.96C487.793 196.96 480.393 195.172 473.98 191.595C467.69 188.018 462.88 182.962 459.55 176.425L470.835 170.875C475.398 180.618 484.34 185.49 497.66 185.49C504.073 185.49 509.377 184.318 513.57 181.975C517.763 179.632 519.86 175.993 519.86 171.06C519.86 166.003 518.133 162.242 514.68 159.775C511.35 157.308 505.43 155.705 496.92 154.965C485.08 153.978 476.57 151.327 471.39 147.01C466.333 142.693 463.805 136.958 463.805 129.805C463.805 121.788 466.703 115.56 472.5 111.12C478.297 106.68 486.252 104.46 496.365 104.46C513.508 104.46 525.163 111.243 531.33 124.81L520.045 130.36C517.948 125.427 514.865 121.788 510.795 119.445C506.848 117.102 501.73 115.93 495.44 115.93C489.027 115.93 484.093 117.102 480.64 119.445C477.31 121.788 475.645 125.118 475.645 129.435C475.645 133.505 477.433 136.835 481.01 139.425C484.71 141.892 491 143.495 499.88 144.235C510.857 145.222 518.997 147.935 524.3 152.375C529.727 156.692 532.44 162.427 532.44 169.58C532.44 175.377 530.775 180.372 527.445 184.565C524.115 188.635 519.675 191.718 514.125 193.815C508.575 195.912 502.593 196.96 496.18 196.96Z" fill="#FF1744"/>
<path d="M610.485 104.46C618.749 104.46 626.149 106.433 632.685 110.38C639.222 114.327 644.34 119.815 648.04 126.845C651.74 133.875 653.59 141.892 653.59 150.895C653.59 159.775 651.74 167.73 648.04 174.76C644.464 181.667 639.407 187.093 632.87 191.04C626.457 194.987 619.119 196.96 610.855 196.96C604.565 196.96 598.769 195.603 593.465 192.89C588.285 190.053 583.907 186.107 580.33 181.05V231H567.75V107.42H580.33V120.185C583.907 115.252 588.285 111.428 593.465 108.715C598.645 105.878 604.319 104.46 610.485 104.46ZM610.855 185.49C616.652 185.49 621.832 184.01 626.395 181.05C630.959 178.09 634.535 174.02 637.125 168.84C639.715 163.537 641.01 157.555 641.01 150.895C641.01 144.112 639.715 138.068 637.125 132.765C634.535 127.462 630.959 123.33 626.395 120.37C621.832 117.41 616.652 115.93 610.855 115.93C604.935 115.93 599.632 117.41 594.945 120.37C590.382 123.33 586.805 127.462 584.215 132.765C581.625 138.068 580.33 144.05 580.33 150.71C580.33 157.37 581.625 163.352 584.215 168.655C586.805 173.958 590.382 178.09 594.945 181.05C599.632 184.01 604.935 185.49 610.855 185.49Z" fill="#FF6D00"/>
<path d="M767.837 107.42V194H755.257V181.235C751.68 186.168 747.302 190.053 742.122 192.89C736.942 195.603 731.268 196.96 725.102 196.96C716.838 196.96 709.438 194.987 702.902 191.04C696.365 187.093 691.247 181.605 687.547 174.575C683.847 167.545 681.997 159.528 681.997 150.525C681.997 141.645 683.785 133.752 687.362 126.845C691.062 119.815 696.118 114.327 702.532 110.38C709.068 106.433 716.468 104.46 724.732 104.46C731.022 104.46 736.757 105.878 741.937 108.715C747.24 111.428 751.68 115.313 755.257 120.37V107.42H767.837ZM724.732 185.49C730.652 185.49 735.893 184.01 740.457 181.05C745.143 178.09 748.782 173.958 751.372 168.655C753.962 163.352 755.257 157.37 755.257 150.71C755.257 144.05 753.962 138.068 751.372 132.765C748.782 127.462 745.143 123.33 740.457 120.37C735.893 117.41 730.652 115.93 724.732 115.93C718.935 115.93 713.755 117.41 709.192 120.37C704.628 123.33 701.052 127.462 698.462 132.765C695.872 137.945 694.577 143.865 694.577 150.525C694.577 157.308 695.872 163.352 698.462 168.655C701.052 173.958 704.628 178.09 709.192 181.05C713.755 184.01 718.935 185.49 724.732 185.49Z" fill="#FFD600"/>
<path d="M887.633 107.42V194H875.053V181.235C871.476 186.168 867.098 190.053 861.918 192.89C856.738 195.603 851.064 196.96 844.898 196.96C836.634 196.96 829.234 194.987 822.698 191.04C816.161 187.093 811.043 181.605 807.343 174.575C803.643 167.545 801.793 159.528 801.793 150.525C801.793 141.645 803.581 133.752 807.158 126.845C810.858 119.815 815.914 114.327 822.328 110.38C828.864 106.433 836.264 104.46 844.528 104.46C850.818 104.46 856.553 105.878 861.733 108.715C867.036 111.428 871.476 115.313 875.053 120.37V107.42H887.633ZM844.528 185.49C850.448 185.49 855.689 184.01 860.253 181.05C864.939 178.09 868.578 173.958 871.168 168.655C873.758 163.352 875.053 157.37 875.053 150.71C875.053 144.05 873.758 138.068 871.168 132.765C868.578 127.462 864.939 123.33 860.253 120.37C855.689 117.41 850.448 115.93 844.528 115.93C838.731 115.93 833.551 117.41 828.988 120.37C824.424 123.33 820.848 127.462 818.258 132.765C815.668 137.945 814.373 143.865 814.373 150.525C814.373 157.308 815.668 163.352 818.258 168.655C820.848 173.958 824.424 178.09 828.988 181.05C833.551 184.01 838.731 185.49 844.528 185.49Z" fill="#AEEA00"/>
<path d="M969.504 104.46C972.464 104.46 975.301 104.892 978.014 105.755V117.225C975.424 115.992 972.587 115.375 969.504 115.375C964.201 115.375 959.267 116.855 954.704 119.815C950.141 122.775 946.441 127.092 943.604 132.765C940.891 138.315 939.534 144.913 939.534 152.56V194H926.954V107.42H939.534V124.81C942.864 118.397 947.057 113.402 952.114 109.825C957.294 106.248 963.091 104.46 969.504 104.46Z" fill="#00C853"/>
<path d="M1059.2 194L1028.86 149.415L1018.32 159.59V194H1005.74V59.69H1018.32V143.68L1056.24 107.42H1072.52L1037.56 141.09L1073.26 194H1059.2Z" fill="#6DBCE1"/>
<path d="M1132.94 196.96C1124.55 196.96 1117.15 195.172 1110.74 191.595C1104.45 188.018 1099.64 182.962 1096.31 176.425L1107.59 170.875C1112.15 180.618 1121.1 185.49 1134.42 185.49C1140.83 185.49 1146.13 184.318 1150.33 181.975C1154.52 179.632 1156.62 175.993 1156.62 171.06C1156.62 166.003 1154.89 162.242 1151.44 159.775C1148.11 157.308 1142.19 155.705 1133.68 154.965C1121.84 153.978 1113.33 151.327 1108.15 147.01C1103.09 142.693 1100.56 136.958 1100.56 129.805C1100.56 121.788 1103.46 115.56 1109.26 111.12C1115.05 106.68 1123.01 104.46 1133.12 104.46C1150.26 104.46 1161.92 111.243 1168.09 124.81L1156.8 130.36C1154.7 125.427 1151.62 121.788 1147.55 119.445C1143.6 117.102 1138.49 115.93 1132.2 115.93C1125.78 115.93 1120.85 117.102 1117.4 119.445C1114.07 121.788 1112.4 125.118 1112.4 129.435C1112.4 133.505 1114.19 136.835 1117.77 139.425C1121.47 141.892 1127.76 143.495 1136.64 144.235C1147.61 145.222 1155.75 147.935 1161.06 152.375C1166.48 156.692 1169.2 162.427 1169.2 169.58C1169.2 175.377 1167.53 180.372 1164.2 184.565C1160.87 188.635 1156.43 191.718 1150.88 193.815C1145.33 195.912 1139.35 196.96 1132.94 196.96Z" fill="#2962FF"/>
<path d="M495.12 284.3C492.96 283.28 490.56 282.41 487.92 281.69C485.28 280.97 482.7 280.61 480.18 280.61C475.98 280.61 472.62 281.66 470.1 283.76C467.58 285.8 466.32 288.44 466.32 291.68C466.32 293.96 466.98 295.91 468.3 297.53C469.68 299.09 471.42 300.41 473.52 301.49C475.62 302.51 478.32 303.65 481.62 304.91C485.22 306.23 488.19 307.58 490.53 308.96C492.93 310.34 494.94 312.23 496.56 314.63C498.18 316.97 498.99 320 498.99 323.72C498.99 327.26 498.15 330.41 496.47 333.17C494.79 335.87 492.42 337.97 489.36 339.47C486.36 340.97 482.91 341.72 479.01 341.72C472.23 341.72 465.51 339.53 458.85 335.15L460.92 331.55C463.14 333.23 465.87 334.7 469.11 335.96C472.35 337.22 475.5 337.85 478.56 337.85C481.26 337.85 483.81 337.34 486.21 336.32C488.67 335.24 490.65 333.65 492.15 331.55C493.71 329.39 494.49 326.81 494.49 323.81C494.49 320.99 493.77 318.62 492.33 316.7C490.95 314.78 489.18 313.25 487.02 312.11C484.92 310.91 482.25 309.71 479.01 308.51C475.41 307.19 472.44 305.93 470.1 304.73C467.76 303.47 465.78 301.82 464.16 299.78C462.6 297.74 461.82 295.19 461.82 292.13C461.82 289.13 462.57 286.49 464.07 284.21C465.63 281.87 467.76 280.07 470.46 278.81C473.22 277.49 476.28 276.8 479.64 276.74C482.52 276.74 485.49 277.13 488.55 277.91C491.67 278.69 494.43 279.68 496.83 280.88L495.12 284.3ZM537.335 304.73C540.635 304.73 543.635 305.54 546.335 307.16C549.095 308.78 551.255 311.03 552.815 313.91C554.435 316.73 555.245 319.88 555.245 323.36C555.245 326.84 554.435 329.99 552.815 332.81C551.195 335.63 548.945 337.82 546.065 339.38C543.245 340.94 540.125 341.72 536.705 341.72C533.585 341.72 530.645 340.97 527.885 339.47C525.185 337.97 523.055 335.99 521.495 333.53V357.92H517.265V305.54H521.045L521.315 313.37C522.995 310.73 525.245 308.63 528.065 307.07C530.945 305.51 534.035 304.73 537.335 304.73ZM535.985 338.21C538.685 338.21 541.175 337.55 543.455 336.23C545.735 334.91 547.535 333.11 548.855 330.83C550.235 328.55 550.925 326.06 550.925 323.36C550.925 320.6 550.265 318.08 548.945 315.8C547.685 313.52 545.915 311.72 543.635 310.4C541.415 309.08 538.955 308.42 536.255 308.42C533.675 308.42 531.275 309.02 529.055 310.22C526.895 311.42 525.125 313.07 523.745 315.17C522.425 317.21 521.675 319.49 521.495 322.01V324.89C521.675 327.35 522.425 329.6 523.745 331.64C525.125 333.68 526.865 335.3 528.965 336.5C531.125 337.64 533.465 338.21 535.985 338.21ZM575.812 314.18C577.072 311.36 579.142 309.11 582.022 307.43C584.902 305.75 587.782 304.88 590.662 304.82L590.482 308.96C587.842 308.96 585.412 309.56 583.192 310.76C580.972 311.9 579.202 313.52 577.882 315.62C576.622 317.66 575.992 319.91 575.992 322.37V341H571.762V305.81H575.452L575.812 314.18ZM620.468 338.03C624.248 338.03 627.668 336.74 630.728 334.16L632.888 337.22C631.148 338.6 629.168 339.71 626.948 340.55C624.788 341.33 622.598 341.72 620.378 341.72C616.778 341.72 613.538 340.91 610.658 339.29C607.838 337.67 605.618 335.48 603.998 332.72C602.438 329.9 601.658 326.75 601.658 323.27C601.658 319.91 602.498 316.82 604.178 314C605.858 311.12 608.138 308.84 611.018 307.16C613.898 305.48 617.048 304.64 620.468 304.64C624.548 304.64 628.028 305.84 630.908 308.24C633.788 310.64 635.888 313.88 637.208 317.96L607.148 329.57C608.288 332.09 610.028 334.13 612.368 335.69C614.768 337.25 617.468 338.03 620.468 338.03ZM620.198 308.24C617.558 308.24 615.128 308.9 612.908 310.22C610.688 311.54 608.948 313.34 607.688 315.62C606.428 317.84 605.798 320.33 605.798 323.09C605.798 324.35 605.918 325.46 606.158 326.42L632.078 316.25C630.938 313.85 629.348 311.93 627.308 310.49C625.268 308.99 622.898 308.24 620.198 308.24ZM687.185 305.81V341H682.955V333.53C681.575 335.81 679.475 337.76 676.655 339.38C673.835 340.94 670.775 341.72 667.475 341.72C664.115 341.72 661.055 340.97 658.295 339.47C655.595 337.91 653.435 335.75 651.815 332.99C650.255 330.17 649.475 326.96 649.475 323.36C649.475 319.52 650.285 316.22 651.905 313.46C653.585 310.64 655.865 308.48 658.745 306.98C661.685 305.48 664.985 304.73 668.645 304.73C671.525 304.73 674.285 305.54 676.925 307.16C679.565 308.78 681.575 310.88 682.955 313.46L683.405 305.81H687.185ZM668.375 338.12C672.335 338.12 675.695 336.89 678.455 334.43C681.215 331.97 682.715 328.82 682.955 324.98V319.94C682.235 316.64 680.495 313.88 677.735 311.66C674.975 309.44 671.825 308.33 668.285 308.33C665.585 308.33 663.125 308.96 660.905 310.22C658.685 311.42 656.915 313.16 655.595 315.44C654.335 317.66 653.705 320.24 653.705 323.18C653.705 325.88 654.365 328.37 655.685 330.65C657.005 332.93 658.775 334.76 660.995 336.14C663.275 337.46 665.735 338.12 668.375 338.12ZM741.688 272.6V341H737.368V333.71C735.748 336.11 733.528 338.06 730.708 339.56C727.888 341 724.828 341.72 721.528 341.72C718.228 341.72 715.198 340.94 712.438 339.38C709.738 337.76 707.608 335.54 706.048 332.72C704.488 329.84 703.708 326.66 703.708 323.18C703.708 319.52 704.518 316.28 706.138 313.46C707.758 310.64 709.948 308.48 712.708 306.98C715.468 305.48 718.558 304.73 721.978 304.73C725.038 304.73 727.978 305.48 730.798 306.98C733.678 308.48 735.898 310.46 737.458 312.92V272.6H741.688ZM722.608 338.03C726.628 338.03 730.018 336.77 732.778 334.25C735.538 331.73 737.068 328.55 737.368 324.71V320.21C736.708 316.79 734.968 313.94 732.148 311.66C729.388 309.38 726.208 308.24 722.608 308.24C719.908 308.24 717.448 308.87 715.228 310.13C713.008 311.39 711.238 313.16 709.918 315.44C708.598 317.66 707.938 320.21 707.938 323.09C707.938 325.79 708.598 328.28 709.918 330.56C711.238 332.84 713.008 334.67 715.228 336.05C717.508 337.37 719.968 338.03 722.608 338.03ZM765.855 305.81V341H761.625V305.81H765.855ZM760.725 292.85C760.725 292.01 761.025 291.32 761.625 290.78C762.285 290.18 763.035 289.88 763.875 289.88C764.715 289.88 765.435 290.18 766.035 290.78C766.635 291.32 766.935 292.01 766.935 292.85C766.935 293.75 766.635 294.5 766.035 295.1C765.435 295.64 764.715 295.91 763.875 295.91C763.035 295.91 762.285 295.61 761.625 295.01C761.025 294.41 760.725 293.69 760.725 292.85ZM804.7 304.82C807.94 304.82 810.58 305.81 812.62 307.79C814.66 309.71 815.74 312.23 815.86 315.35V341H811.54V316.52C811.42 314.18 810.67 312.29 809.29 310.85C807.91 309.35 805.93 308.57 803.35 308.51C800.95 308.51 798.73 309.08 796.69 310.22C794.71 311.36 793.09 312.98 791.83 315.08C790.63 317.12 790.03 319.46 790.03 322.1V341H785.8V305.81H789.49L789.85 313.64C790.99 310.94 792.91 308.81 795.61 307.25C798.37 305.63 801.4 304.82 804.7 304.82ZM870.555 305.81V341.54C870.555 346.34 868.965 350.3 865.785 353.42C862.665 356.6 857.895 358.19 851.475 358.19C848.415 358.19 845.595 357.62 843.015 356.48C840.435 355.4 837.795 353.57 835.095 350.99L837.615 348.11C840.015 350.45 842.325 352.07 844.545 352.97C846.765 353.93 849.015 354.41 851.295 354.41C856.455 354.41 860.205 353.24 862.545 350.9C864.885 348.56 866.115 345.41 866.235 341.45L866.325 333.17C864.765 335.75 862.545 337.82 859.665 339.38C856.845 340.94 853.755 341.72 850.395 341.72C847.095 341.72 844.065 340.91 841.305 339.29C838.605 337.67 836.445 335.45 834.825 332.63C833.205 329.81 832.395 326.69 832.395 323.27C832.395 319.73 833.235 316.55 834.915 313.73C836.595 310.91 838.875 308.72 841.755 307.16C844.635 305.54 847.815 304.73 851.295 304.73C854.355 304.73 857.295 305.51 860.115 307.07C862.935 308.57 865.035 310.58 866.415 313.1L866.775 305.81H870.555ZM851.475 338.12C854.055 338.12 856.425 337.55 858.585 336.41C860.805 335.21 862.605 333.62 863.985 331.64C865.365 329.66 866.145 327.53 866.325 325.25V320.03C865.605 316.61 863.835 313.82 861.015 311.66C858.255 309.44 855.075 308.33 851.475 308.33C848.715 308.33 846.195 308.96 843.915 310.22C841.635 311.48 839.835 313.25 838.515 315.53C837.255 317.75 836.625 320.3 836.625 323.18C836.625 325.88 837.285 328.37 838.605 330.65C839.925 332.93 841.725 334.76 844.005 336.14C846.285 337.46 848.775 338.12 851.475 338.12ZM956.243 284.3C954.083 283.28 951.683 282.41 949.043 281.69C946.403 280.97 943.823 280.61 941.303 280.61C937.103 280.61 933.743 281.66 931.223 283.76C928.703 285.8 927.443 288.44 927.443 291.68C927.443 293.96 928.103 295.91 929.423 297.53C930.803 299.09 932.543 300.41 934.643 301.49C936.743 302.51 939.443 303.65 942.743 304.91C946.343 306.23 949.313 307.58 951.653 308.96C954.053 310.34 956.063 312.23 957.683 314.63C959.303 316.97 960.113 320 960.113 323.72C960.113 327.26 959.273 330.41 957.593 333.17C955.913 335.87 953.543 337.97 950.483 339.47C947.483 340.97 944.033 341.72 940.133 341.72C933.353 341.72 926.633 339.53 919.973 335.15L922.043 331.55C924.263 333.23 926.993 334.7 930.233 335.96C933.473 337.22 936.623 337.85 939.683 337.85C942.383 337.85 944.933 337.34 947.333 336.32C949.793 335.24 951.773 333.65 953.273 331.55C954.833 329.39 955.613 326.81 955.613 323.81C955.613 320.99 954.893 318.62 953.453 316.7C952.073 314.78 950.303 313.25 948.143 312.11C946.043 310.91 943.373 309.71 940.133 308.51C936.533 307.19 933.563 305.93 931.223 304.73C928.883 303.47 926.903 301.82 925.283 299.78C923.723 297.74 922.943 295.19 922.943 292.13C922.943 289.13 923.693 286.49 925.193 284.21C926.753 281.87 928.883 280.07 931.583 278.81C934.343 277.49 937.403 276.8 940.763 276.74C943.643 276.74 946.613 277.13 949.673 277.91C952.793 278.69 955.553 279.68 957.953 280.88L956.243 284.3ZM1022.13 304.82C1025.43 304.82 1028.07 305.78 1030.05 307.7C1032.03 309.62 1033.08 312.17 1033.2 315.35V341H1028.97V316.25C1028.85 314.09 1028.13 312.29 1026.81 310.85C1025.55 309.41 1023.69 308.63 1021.23 308.51C1018.89 308.51 1016.73 309.11 1014.75 310.31C1012.77 311.51 1011.15 313.13 1009.89 315.17C1008.69 317.15 1008.03 319.34 1007.91 321.74V341H1003.68V316.25C1003.56 314.09 1002.84 312.29 1001.52 310.85C1000.2 309.41 998.308 308.63 995.848 308.51C993.508 308.51 991.318 309.11 989.278 310.31C987.238 311.51 985.618 313.16 984.418 315.26C983.218 317.36 982.618 319.64 982.618 322.1V341H978.388V305.81H982.078L982.438 313.55C983.758 310.85 985.738 308.72 988.378 307.16C991.018 305.6 993.898 304.82 997.018 304.82C999.838 304.82 1002.27 305.6 1004.31 307.16C1006.35 308.66 1007.55 310.61 1007.91 313.01C1009.29 310.43 1011.24 308.42 1013.76 306.98C1016.34 305.54 1019.13 304.82 1022.13 304.82ZM1057.42 305.81V341H1053.19V305.81H1057.42ZM1052.29 292.85C1052.29 292.01 1052.59 291.32 1053.19 290.78C1053.85 290.18 1054.6 289.88 1055.44 289.88C1056.28 289.88 1057 290.18 1057.6 290.78C1058.2 291.32 1058.5 292.01 1058.5 292.85C1058.5 293.75 1058.2 294.5 1057.6 295.1C1057 295.64 1056.28 295.91 1055.44 295.91C1054.6 295.91 1053.85 295.61 1053.19 295.01C1052.59 294.41 1052.29 293.69 1052.29 292.85ZM1081.59 272.6V341H1077.36V272.6H1081.59ZM1116.93 338.03C1120.71 338.03 1124.13 336.74 1127.19 334.16L1129.35 337.22C1127.61 338.6 1125.63 339.71 1123.41 340.55C1121.25 341.33 1119.06 341.72 1116.84 341.72C1113.24 341.72 1110 340.91 1107.12 339.29C1104.3 337.67 1102.08 335.48 1100.46 332.72C1098.9 329.9 1098.12 326.75 1098.12 323.27C1098.12 319.91 1098.96 316.82 1100.64 314C1102.32 311.12 1104.6 308.84 1107.48 307.16C1110.36 305.48 1113.51 304.64 1116.93 304.64C1121.01 304.64 1124.49 305.84 1127.37 308.24C1130.25 310.64 1132.35 313.88 1133.67 317.96L1103.61 329.57C1104.75 332.09 1106.49 334.13 1108.83 335.69C1111.23 337.25 1113.93 338.03 1116.93 338.03ZM1116.66 308.24C1114.02 308.24 1111.59 308.9 1109.37 310.22C1107.15 311.54 1105.41 313.34 1104.15 315.62C1102.89 317.84 1102.26 320.33 1102.26 323.09C1102.26 324.35 1102.38 325.46 1102.62 326.42L1128.54 316.25C1127.4 313.85 1125.81 311.93 1123.77 310.49C1121.73 308.99 1119.36 308.24 1116.66 308.24ZM1157.64 341.72C1155.36 341.72 1153.14 341.33 1150.98 340.55C1148.88 339.77 1147.17 338.57 1145.85 336.95L1147.83 334.16C1149.03 335.42 1150.47 336.44 1152.15 337.22C1153.83 337.94 1155.57 338.3 1157.37 338.3C1159.65 338.3 1161.57 337.79 1163.13 336.77C1164.69 335.69 1165.47 334.04 1165.47 331.82C1165.47 330.26 1165.05 329.03 1164.21 328.13C1163.37 327.17 1162.41 326.48 1161.33 326.06C1160.25 325.58 1158.51 324.95 1156.11 324.17C1153.29 323.21 1151.1 322.01 1149.54 320.57C1148.04 319.07 1147.29 317.09 1147.29 314.63C1147.29 311.75 1148.28 309.44 1150.26 307.7C1152.3 305.9 1154.88 305 1158 305C1162.32 305 1165.83 306.32 1168.53 308.96L1166.64 311.93C1165.74 310.73 1164.54 309.86 1163.04 309.32C1161.6 308.78 1160.13 308.48 1158.63 308.42C1156.83 308.42 1155.18 308.93 1153.68 309.95C1152.24 310.91 1151.52 312.29 1151.52 314.09C1151.52 315.95 1152.18 317.36 1153.5 318.32C1154.82 319.22 1156.83 320.15 1159.53 321.11C1162.83 322.19 1165.35 323.42 1167.09 324.8C1168.83 326.12 1169.7 328.16 1169.7 330.92C1169.7 334.16 1168.65 336.77 1166.55 338.75C1164.51 340.73 1161.54 341.72 1157.64 341.72Z" fill="#AA00FF"/>
<path d="M1186 45C1178.27 45 1172 51.2689 1172 58.9989C1172 66.7311 1178.27 72.9978 1186 72.9978C1193.73 72.9978 1200 66.7311 1200 58.9989C1200 51.2689 1193.73 45 1186 45ZM1186 71.6575C1179.02 71.6575 1173.34 65.9797 1173.34 58.9989C1173.34 52.0203 1179.02 46.3403 1186 46.3403C1192.98 46.3403 1198.66 52.0181 1198.66 58.9989C1198.66 65.9797 1192.98 71.6575 1186 71.6575Z" fill="#AA00FF"/>
<path d="M1189.37 61.3875C1191.44 60.535 1192.89 58.5157 1192.89 56.1646C1192.89 53.0467 1190.33 50.5088 1187.18 50.5088H1181.17C1181.14 50.5088 1181.12 50.5176 1181.1 50.522H1180.07C1179.87 50.522 1179.71 50.6824 1179.71 50.8779V66.9181C1179.71 67.1137 1179.87 67.2741 1180.07 67.2741H1183.55C1183.74 67.2741 1183.9 67.1137 1183.9 66.9181V61.8204H1185.28L1189.28 67.1422C1189.35 67.2367 1189.46 67.2916 1189.58 67.2916H1193.06C1193.2 67.2916 1193.33 67.2104 1193.4 67.0851C1193.46 66.9577 1193.45 66.8039 1193.36 66.6918L1189.37 61.3875ZM1186.82 58.4871C1186.79 58.4871 1186.77 58.4959 1186.74 58.4959H1183.97C1183.96 58.4959 1183.95 58.4893 1183.95 58.4871C1183.93 58.4827 1183.92 58.4805 1183.91 58.4696C1183.9 58.4612 1183.89 58.4508 1183.88 58.439C1183.88 58.4272 1183.88 58.4144 1183.88 58.4014V53.9256C1183.88 53.897 1183.89 53.875 1183.91 53.8575C1183.92 53.8487 1183.93 53.8465 1183.94 53.8421C1183.95 53.8399 1183.96 53.8311 1183.97 53.8311H1186.74C1186.77 53.8311 1186.81 53.8399 1186.84 53.8421C1188.03 53.897 1188.99 54.9121 1188.99 56.1624C1188.99 57.4192 1188.02 58.4388 1186.82 58.4871Z" fill="#AA00FF"/>
</svg>
